<svg id="SvgjsSvg1006" width="2002.734375" height="1130" xmlns="http://www.w3.org/2000/svg" version="1.1" xmlns:xlink="http://www.w3.org/1999/xlink" xmlns:svgjs="http://svgjs.com/svgjs"><defs id="SvgjsDefs1007"></defs><rect id="SvgjsRect1008" width="2002.734375" height="1130" fill="#d7e9f5"></rect><g id="SvgjsG1009" transform="translate(25,25.009868421052985)"><path id="SvgjsPath1010" d="M 0 540C 0 -180 1080 -180 1080 540C 1080 1260 0 1260 0 540Z" stroke="rgba(0,48,71,1)" stroke-width="1" fill="none"></path><g id="SvgjsG1011"><text id="SvgjsText1012" font-family="黑体" text-anchor="middle" font-size="14px" width="1060px" fill="#003047" font-weight="400" align="middle" anchor="middle" family="黑体" size="14px" weight="400" font-style="" opacity="1" y="528.9" transform="rotate(0)"></text></g></g><g id="SvgjsG1013" transform="translate(286.9220529393663,289.5245250554504)"><path id="SvgjsPath1014" d="M 0 113.5C 0 -37.833333333333336 232 -37.833333333333336 232 113.5C 232 264.8333333333333 0 264.8333333333333 0 113.5Z" stroke="rgba(0,48,71,1)" stroke-width="1" fill-opacity="1" fill="#ffffff"></path><g id="SvgjsG1015"><text id="SvgjsText1016" font-family="黑体" text-anchor="middle" font-size="14px" width="212px" fill="#003047" font-weight="400" align="middle" anchor="middle" family="黑体" size="14px" weight="400" font-style="" opacity="1" y="102.4" transform="rotate(0)"><tspan id="SvgjsTspan1017" dy="17" x="116"><tspan id="SvgjsTspan1018" style="text-decoration:;">Pod</tspan></tspan></text></g></g><g id="SvgjsG1019" transform="translate(336.75000000000006,304.5245504986976)"><path id="SvgjsPath1020" d="M 0 42C 0 -14 86 -14 86 42C 86 98 0 98 0 42Z" stroke="rgba(0,48,71,1)" stroke-width="1" fill-opacity="1" fill="#ffffff"></path><g id="SvgjsG1021"><text id="SvgjsText1022" font-family="黑体" text-anchor="middle" font-size="14px" width="66px" fill="#003047" font-weight="400" align="middle" anchor="middle" family="黑体" size="14px" weight="400" font-style="" opacity="1" y="21.9" transform="rotate(0)"><tspan id="SvgjsTspan1023" dy="17" x="43"><tspan id="SvgjsTspan1024" style="text-decoration:;">container</tspan></tspan><tspan id="SvgjsTspan1025" dy="17" x="43"><tspan id="SvgjsTspan1026" style="text-decoration:;">(应用)</tspan></tspan></text></g></g><g id="SvgjsG1027" transform="translate(336.75,415.54948124661917)"><path id="SvgjsPath1028" d="M 0 42C 0 -14 86 -14 86 42C 86 98 0 98 0 42Z" stroke="rgba(0,48,71,1)" stroke-width="1" fill-opacity="1" fill="#ffffff"></path><g id="SvgjsG1029"><text id="SvgjsText1030" font-family="黑体" text-anchor="middle" font-size="14px" width="66px" fill="#003047" font-weight="400" align="middle" anchor="middle" family="黑体" size="14px" weight="400" font-style="" opacity="1" y="12.9" transform="rotate(0)"><tspan id="SvgjsTspan1031" dy="17" x="43"><tspan id="SvgjsTspan1032" style="text-decoration:;">container</tspan></tspan><tspan id="SvgjsTspan1033" dy="17" x="43"><tspan id="SvgjsTspan1034" style="text-decoration:;">(istio-</tspan></tspan><tspan id="SvgjsTspan1035" dy="17" x="43"><tspan id="SvgjsTspan1036" style="text-decoration:;">proxy)</tspan></tspan></text></g></g><g id="SvgjsG1037" transform="translate(423.14919975377086,356.1034978671184)"><path id="SvgjsPath1038" d="M 0 42C 0 -14 86 -14 86 42C 86 98 0 98 0 42Z" stroke="rgba(0,48,71,1)" stroke-width="1" fill-opacity="1" fill="#ffffff"></path><g id="SvgjsG1039"><text id="SvgjsText1040" font-family="黑体" text-anchor="middle" font-size="14px" width="66px" fill="#003047" font-weight="400" align="middle" anchor="middle" family="黑体" size="14px" weight="400" font-style="" opacity="1" y="21.9" transform="rotate(0)"><tspan id="SvgjsTspan1041" dy="17" x="43"><tspan id="SvgjsTspan1042" style="text-decoration:;">container</tspan></tspan><tspan id="SvgjsTspan1043" dy="17" x="43"><tspan id="SvgjsTspan1044" style="text-decoration:;">(Filebeat</tspan><tspan id="SvgjsTspan1045" style="text-decoration:;font-size: inherit;">)</tspan></tspan></text></g></g><g id="SvgjsG1046" transform="translate(670.0307017543844,349.0700272780745)"><path id="SvgjsPath1047" d="M 0 113.5C 0 -37.833333333333336 232 -37.833333333333336 232 113.5C 232 264.8333333333333 0 264.8333333333333 0 113.5Z" stroke="rgba(0,48,71,1)" stroke-width="1" fill-opacity="1" fill="#ffffff"></path><g id="SvgjsG1048"><text id="SvgjsText1049" font-family="黑体" text-anchor="middle" font-size="14px" width="212px" fill="#003047" font-weight="400" align="middle" anchor="middle" family="黑体" size="14px" weight="400" font-style="" opacity="1" y="102.4" transform="rotate(0)"><tspan id="SvgjsTspan1050" dy="17" x="116"><tspan id="SvgjsTspan1051" style="text-decoration:;">Pod</tspan></tspan></text></g></g><g id="SvgjsG1052" transform="translate(721.75,365.4807801253096)"><path id="SvgjsPath1053" d="M 0 42C 0 -14 86 -14 86 42C 86 98 0 98 0 42Z" stroke="rgba(0,48,71,1)" stroke-width="1" fill-opacity="1" fill="#ffffff"></path><g id="SvgjsG1054"><text id="SvgjsText1055" font-family="黑体" text-anchor="middle" font-size="14px" width="66px" fill="#003047" font-weight="400" align="middle" anchor="middle" family="黑体" size="14px" weight="400" font-style="" opacity="1" y="21.9" transform="rotate(0)"><tspan id="SvgjsTspan1056" dy="17" x="43"><tspan id="SvgjsTspan1057" style="text-decoration:;">container</tspan></tspan><tspan id="SvgjsTspan1058" dy="17" x="43"><tspan id="SvgjsTspan1059" style="text-decoration:;">(应用)</tspan></tspan></text></g></g><g id="SvgjsG1060" transform="translate(721.75,476.50571087323203)"><path id="SvgjsPath1061" d="M 0 42C 0 -14 86 -14 86 42C 86 98 0 98 0 42Z" stroke="rgba(0,48,71,1)" stroke-width="1" fill-opacity="1" fill="#ffffff"></path><g id="SvgjsG1062"><text id="SvgjsText1063" font-family="黑体" text-anchor="middle" font-size="14px" width="66px" fill="#003047" font-weight="400" align="middle" anchor="middle" family="黑体" size="14px" weight="400" font-style="" opacity="1" y="12.9" transform="rotate(0)"><tspan id="SvgjsTspan1064" dy="17" x="43"><tspan id="SvgjsTspan1065" style="text-decoration:;">container</tspan></tspan><tspan id="SvgjsTspan1066" dy="17" x="43"><tspan id="SvgjsTspan1067" style="text-decoration:;">(istio-</tspan></tspan><tspan id="SvgjsTspan1068" dy="17" x="43"><tspan id="SvgjsTspan1069" style="text-decoration:;">proxy)</tspan></tspan></text></g></g><g id="SvgjsG1070" transform="translate(806.2578485687905,417.0597274937307)"><path id="SvgjsPath1071" d="M 0 42C 0 -14 86 -14 86 42C 86 98 0 98 0 42Z" stroke="rgba(0,48,71,1)" stroke-width="1" fill-opacity="1" fill="#ffffff"></path><g id="SvgjsG1072"><text id="SvgjsText1073" font-family="黑体" text-anchor="middle" font-size="14px" width="66px" fill="#003047" font-weight="400" align="middle" anchor="middle" family="黑体" size="14px" weight="400" font-style="" opacity="1" y="21.9" transform="rotate(0)"><tspan id="SvgjsTspan1074" dy="17" x="43"><tspan id="SvgjsTspan1075" style="text-decoration:;">container</tspan></tspan><tspan id="SvgjsTspan1076" dy="17" x="43"><tspan id="SvgjsTspan1077" style="text-decoration:;">(Filebeat</tspan><tspan id="SvgjsTspan1078" style="text-decoration:;font-size: inherit;">)</tspan></tspan></text></g></g><g id="SvgjsG1079" transform="translate(195.8921975992617,610.9728972283272)"><path id="SvgjsPath1080" d="M 0 113.5C 0 -37.833333333333336 232 -37.833333333333336 232 113.5C 232 264.8333333333333 0 264.8333333333333 0 113.5Z" stroke="rgba(0,48,71,1)" stroke-width="1" fill-opacity="1" fill="#ffffff"></path><g id="SvgjsG1081"><text id="SvgjsText1082" font-family="黑体" text-anchor="middle" font-size="14px" width="212px" fill="#003047" font-weight="400" align="middle" anchor="middle" family="黑体" size="14px" weight="400" font-style="" opacity="1" y="102.4" transform="rotate(0)"><tspan id="SvgjsTspan1083" dy="17" x="116"><tspan id="SvgjsTspan1084" style="text-decoration:;">Pod</tspan></tspan></text></g></g><g id="SvgjsG1085" transform="translate(247.75,625.9729226715743)"><path id="SvgjsPath1086" d="M 0 42C 0 -14 86 -14 86 42C 86 98 0 98 0 42Z" stroke="rgba(0,48,71,1)" stroke-width="1" fill-opacity="1" fill="#ffffff"></path><g id="SvgjsG1087"><text id="SvgjsText1088" font-family="黑体" text-anchor="middle" font-size="14px" width="66px" fill="#003047" font-weight="400" align="middle" anchor="middle" family="黑体" size="14px" weight="400" font-style="" opacity="1" y="21.9" transform="rotate(0)"><tspan id="SvgjsTspan1089" dy="17" x="43"><tspan id="SvgjsTspan1090" style="text-decoration:;">container</tspan></tspan><tspan id="SvgjsTspan1091" dy="17" x="43"><tspan id="SvgjsTspan1092" style="text-decoration:;">(应用)</tspan></tspan></text></g></g><g id="SvgjsG1093" transform="translate(247.75,736.9978534194962)"><path id="SvgjsPath1094" d="M 0 42C 0 -14 86 -14 86 42C 86 98 0 98 0 42Z" stroke="rgba(0,48,71,1)" stroke-width="1" fill-opacity="1" fill="#ffffff"></path><g id="SvgjsG1095"><text id="SvgjsText1096" font-family="黑体" text-anchor="middle" font-size="14px" width="66px" fill="#003047" font-weight="400" align="middle" anchor="middle" family="黑体" size="14px" weight="400" font-style="" opacity="1" y="12.9" transform="rotate(0)"><tspan id="SvgjsTspan1097" dy="17" x="43"><tspan id="SvgjsTspan1098" style="text-decoration:;">container</tspan></tspan><tspan id="SvgjsTspan1099" dy="17" x="43"><tspan id="SvgjsTspan1100" style="text-decoration:;">(istio-</tspan></tspan><tspan id="SvgjsTspan1101" dy="17" x="43"><tspan id="SvgjsTspan1102" style="text-decoration:;">proxy)</tspan></tspan></text></g></g><g id="SvgjsG1103" transform="translate(336.75,677.5518700399953)"><path id="SvgjsPath1104" d="M 0 42C 0 -14 86 -14 86 42C 86 98 0 98 0 42Z" stroke="rgba(0,48,71,1)" stroke-width="1" fill-opacity="1" fill="#ffffff"></path><g id="SvgjsG1105"><text id="SvgjsText1106" font-family="黑体" text-anchor="middle" font-size="14px" width="66px" fill="#003047" font-weight="400" align="middle" anchor="middle" family="黑体" size="14px" weight="400" font-style="" opacity="1" y="21.9" transform="rotate(0)"><tspan id="SvgjsTspan1107" dy="17" x="43"><tspan id="SvgjsTspan1108" style="text-decoration:;">container</tspan></tspan><tspan id="SvgjsTspan1109" dy="17" x="43"><tspan id="SvgjsTspan1110" style="text-decoration:;">(Filebeat</tspan><tspan id="SvgjsTspan1111" style="text-decoration:;font-size: inherit;">)</tspan></tspan></text></g></g><g id="SvgjsG1112" transform="translate(546.1932132963997,692.7642289427171)"><path id="SvgjsPath1113" d="M 0 113.5C 0 -37.833333333333336 232 -37.833333333333336 232 113.5C 232 264.8333333333333 0 264.8333333333333 0 113.5Z" stroke="rgba(0,48,71,1)" stroke-width="1" fill-opacity="1" fill="#ffffff"></path><g id="SvgjsG1114"><text id="SvgjsText1115" font-family="黑体" text-anchor="middle" font-size="14px" width="212px" fill="#003047" font-weight="400" align="middle" anchor="middle" family="黑体" size="14px" weight="400" font-style="" opacity="1" y="102.4" transform="rotate(0)"><tspan id="SvgjsTspan1116" dy="17" x="116"><tspan id="SvgjsTspan1117" style="text-decoration:;">Pod</tspan></tspan></text></g></g><g id="SvgjsG1118" transform="translate(597.75,707.7642543859643)"><path id="SvgjsPath1119" d="M 0 42C 0 -14 86 -14 86 42C 86 98 0 98 0 42Z" stroke="rgba(0,48,71,1)" stroke-width="1" fill-opacity="1" fill="#ffffff"></path><g id="SvgjsG1120"><text id="SvgjsText1121" font-family="黑体" text-anchor="middle" font-size="14px" width="66px" fill="#003047" font-weight="400" align="middle" anchor="middle" family="黑体" size="14px" weight="400" font-style="" opacity="1" y="21.9" transform="rotate(0)"><tspan id="SvgjsTspan1122" dy="17" x="43"><tspan id="SvgjsTspan1123" style="text-decoration:;">container</tspan></tspan><tspan id="SvgjsTspan1124" dy="17" x="43"><tspan id="SvgjsTspan1125" style="text-decoration:;">(应用)</tspan></tspan></text></g></g><g id="SvgjsG1126" transform="translate(597.75,818.7891851338862)"><path id="SvgjsPath1127" d="M 0 42C 0 -14 86 -14 86 42C 86 98 0 98 0 42Z" stroke="rgba(0,48,71,1)" stroke-width="1" fill-opacity="1" fill="#ffffff"></path><g id="SvgjsG1128"><text id="SvgjsText1129" font-family="黑体" text-anchor="middle" font-size="14px" width="66px" fill="#003047" font-weight="400" align="middle" anchor="middle" family="黑体" size="14px" weight="400" font-style="" opacity="1" y="12.9" transform="rotate(0)"><tspan id="SvgjsTspan1130" dy="17" x="43"><tspan id="SvgjsTspan1131" style="text-decoration:;">container</tspan></tspan><tspan id="SvgjsTspan1132" dy="17" x="43"><tspan id="SvgjsTspan1133" style="text-decoration:;">(istio-</tspan></tspan><tspan id="SvgjsTspan1134" dy="17" x="43"><tspan id="SvgjsTspan1135" style="text-decoration:;">proxy)</tspan></tspan></text></g></g><g id="SvgjsG1136" transform="translate(682.420360110804,759.343201754385)"><path id="SvgjsPath1137" d="M 0 42C 0 -14 86 -14 86 42C 86 98 0 98 0 42Z" stroke="rgba(0,48,71,1)" stroke-width="1" fill-opacity="1" fill="#ffffff"></path><g id="SvgjsG1138"><text id="SvgjsText1139" font-family="黑体" text-anchor="middle" font-size="14px" width="66px" fill="#003047" font-weight="400" align="middle" anchor="middle" family="黑体" size="14px" weight="400" font-style="" opacity="1" y="21.9" transform="rotate(0)"><tspan id="SvgjsTspan1140" dy="17" x="43"><tspan id="SvgjsTspan1141" style="text-decoration:;">container</tspan></tspan><tspan id="SvgjsTspan1142" dy="17" x="43"><tspan id="SvgjsTspan1143" style="text-decoration:;">(Filebeat</tspan><tspan id="SvgjsTspan1144" style="text-decoration:;font-size: inherit;">)</tspan></tspan></text></g></g><g id="SvgjsG1145" transform="translate(474.63334872268365,147.48355263157865)"><path id="SvgjsPath1146" d="M 0 0L 222.26408125577052 0L 222.26408125577052 66.57894736842115L 0 66.57894736842115Z" stroke="none" fill="none"></path><g id="SvgjsG1147"><text id="SvgjsText1148" font-family="黑体" text-anchor="middle" font-size="37px" width="223px" fill="#003047" font-weight="700" align="middle" anchor="middle" family="黑体" size="37px" weight="700" font-style="" opacity="1" y="2.7394736842105774" transform="rotate(0)"><tspan id="SvgjsTspan1149" dy="46" x="111.5"><tspan id="SvgjsTspan1150" style="text-decoration:;">K8S集群</tspan></tspan></text></g></g><g id="SvgjsG1151" transform="translate(831.8260233918107,820.7759502923961)"><path id="SvgjsPath1152" d="M 0 0L 120 0L 120 40L 0 40Z" stroke="none" fill="none"></path><g id="SvgjsG1153"><text id="SvgjsText1154" font-family="黑体" text-anchor="middle" font-size="31px" width="120px" fill="#003047" font-weight="400" align="middle" anchor="middle" family="黑体" size="31px" weight="400" font-style="" opacity="1" y="-6.1499999999999995" transform="rotate(0)"><tspan id="SvgjsTspan1155" dy="38" x="60"><tspan id="SvgjsTspan1156" style="text-decoration:;">。。。</tspan></tspan></text></g></g><g id="SvgjsG1157" transform="translate(1263.75,367.5326171454695)"><path id="SvgjsPath1158" d="M 0 42C 0 -14 86 -14 86 42C 86 98 0 98 0 42Z" stroke="rgba(0,48,71,1)" stroke-width="1" fill-opacity="1" fill="#ffffff"></path><g id="SvgjsG1159"><text id="SvgjsText1160" font-family="黑体" text-anchor="middle" font-size="14px" width="66px" fill="#003047" font-weight="400" align="middle" anchor="middle" family="黑体" size="14px" weight="400" font-style="" opacity="1" y="21.9" transform="rotate(0)"><tspan id="SvgjsTspan1161" dy="17" x="43"><tspan id="SvgjsTspan1162" style="text-decoration:;">container</tspan></tspan><tspan id="SvgjsTspan1163" dy="17" x="43"><tspan id="SvgjsTspan1164" style="text-decoration:;">(Filebeat</tspan><tspan id="SvgjsTspan1165" style="text-decoration:;font-size: inherit;">)</tspan></tspan></text></g></g><g id="SvgjsG1166" transform="translate(1263.75,487.598312141728)"><path id="SvgjsPath1167" d="M 0 42C 0 -14 86 -14 86 42C 86 98 0 98 0 42Z" stroke="rgba(0,48,71,1)" stroke-width="1" fill-opacity="1" fill="#ffffff"></path><g id="SvgjsG1168"><text id="SvgjsText1169" font-family="黑体" text-anchor="middle" font-size="14px" width="66px" fill="#003047" font-weight="400" align="middle" anchor="middle" family="黑体" size="14px" weight="400" font-style="" opacity="1" y="21.9" transform="rotate(0)"><tspan id="SvgjsTspan1170" dy="17" x="43"><tspan id="SvgjsTspan1171" style="text-decoration:;">container</tspan></tspan><tspan id="SvgjsTspan1172" dy="17" x="43"><tspan id="SvgjsTspan1173" style="text-decoration:;">(Filebeat</tspan><tspan id="SvgjsTspan1174" style="text-decoration:;font-size: inherit;">)</tspan></tspan></text></g></g><g id="SvgjsG1175" transform="translate(1263.75,617.2085945297216)"><path id="SvgjsPath1176" d="M 0 42C 0 -14 86 -14 86 42C 86 98 0 98 0 42Z" stroke="rgba(0,48,71,1)" stroke-width="1" fill-opacity="1" fill="#ffffff"></path><g id="SvgjsG1177"><text id="SvgjsText1178" font-family="黑体" text-anchor="middle" font-size="14px" width="66px" fill="#003047" font-weight="400" align="middle" anchor="middle" family="黑体" size="14px" weight="400" font-style="" opacity="1" y="21.9" transform="rotate(0)"><tspan id="SvgjsTspan1179" dy="17" x="43"><tspan id="SvgjsTspan1180" style="text-decoration:;">container</tspan></tspan><tspan id="SvgjsTspan1181" dy="17" x="43"><tspan id="SvgjsTspan1182" style="text-decoration:;">(Filebeat</tspan><tspan id="SvgjsTspan1183" style="text-decoration:;font-size: inherit;">)</tspan></tspan></text></g></g><g id="SvgjsG1184" transform="translate(1440.0307017543853,415.0142004870451)"><path id="SvgjsPath1185" d="M 0 113.5C 0 -37.833333333333336 232 -37.833333333333336 232 113.5C 232 264.8333333333333 0 264.8333333333333 0 113.5Z" stroke="rgba(0,48,71,1)" stroke-width="1" fill-opacity="1" fill="#ffffff"></path><g id="SvgjsG1186"><text id="SvgjsText1187" font-family="黑体" text-anchor="middle" font-size="14px" width="212px" fill="#003047" font-weight="400" align="middle" anchor="middle" family="黑体" size="14px" weight="400" font-style="" opacity="1" y="102.4" transform="rotate(0)"><tspan id="SvgjsTspan1188" dy="17" x="116"><tspan id="SvgjsTspan1189" style="text-decoration:;">Pod</tspan></tspan></text></g></g><g id="SvgjsG1190" transform="translate(1492.75,433.0625)"><path id="SvgjsPath1191" d="M 0 42C 0 -14 86 -14 86 42C 86 98 0 98 0 42Z" stroke="rgba(0,48,71,1)" stroke-width="1" fill-opacity="1" fill="#ffffff"></path><g id="SvgjsG1192"><text id="SvgjsText1193" font-family="黑体" text-anchor="middle" font-size="14px" width="66px" fill="#003047" font-weight="400" align="middle" anchor="middle" family="黑体" size="14px" weight="400" font-style="" opacity="1" y="21.9" transform="rotate(0)"><tspan id="SvgjsTspan1194" dy="17" x="43"><tspan id="SvgjsTspan1195" style="text-decoration:;">container</tspan></tspan><tspan id="SvgjsTspan1196" dy="17" x="43"><tspan id="SvgjsTspan1197" style="text-decoration:;">(ES)</tspan></tspan></text></g></g><g id="SvgjsG1198" transform="translate(1492.75,544.0625)"><path id="SvgjsPath1199" d="M 0 42C 0 -14 86 -14 86 42C 86 98 0 98 0 42Z" stroke="rgba(0,48,71,1)" stroke-width="1" fill-opacity="1" fill="#ffffff"></path><g id="SvgjsG1200"><text id="SvgjsText1201" font-family="黑体" text-anchor="middle" font-size="14px" width="66px" fill="#003047" font-weight="400" align="middle" anchor="middle" family="黑体" size="14px" weight="400" font-style="" opacity="1" y="12.9" transform="rotate(0)"><tspan id="SvgjsTspan1202" dy="17" x="43"><tspan id="SvgjsTspan1203" style="text-decoration:;">container</tspan></tspan><tspan id="SvgjsTspan1204" dy="17" x="43"><tspan id="SvgjsTspan1205" style="text-decoration:;">(istio-</tspan></tspan><tspan id="SvgjsTspan1206" dy="17" x="43"><tspan id="SvgjsTspan1207" style="text-decoration:;">proxy)</tspan></tspan></text></g></g><g id="SvgjsG1208" transform="translate(1576.75,483.79362513492356)"><path id="SvgjsPath1209" d="M 0 42C 0 -14 86 -14 86 42C 86 98 0 98 0 42Z" stroke="rgba(0,48,71,1)" stroke-width="1" fill-opacity="1" fill="#ffffff"></path><g id="SvgjsG1210"><text id="SvgjsText1211" font-family="黑体" text-anchor="middle" font-size="14px" width="66px" fill="#003047" font-weight="400" align="middle" anchor="middle" family="黑体" size="14px" weight="400" font-style="" opacity="1" y="21.9" transform="rotate(0)"><tspan id="SvgjsTspan1212" dy="17" x="43"><tspan id="SvgjsTspan1213" style="text-decoration:;">container</tspan></tspan><tspan id="SvgjsTspan1214" dy="17" x="43"><tspan id="SvgjsTspan1215" style="text-decoration:;">(Filebeat</tspan><tspan id="SvgjsTspan1216" style="text-decoration:;font-size: inherit;">)</tspan></tspan></text></g></g><g id="SvgjsG1217"><path id="SvgjsPath1218" d="M1349.75 529.3039249192673L1394.8903508771928 529.3039249192673L1394.8903508771928 529.3039249192673L1440.0307017543853 528.5142004870452" stroke-dasharray="8,5" stroke="#003047" stroke-width="2" fill="none"></path></g><g id="SvgjsG1219"><path id="SvgjsPath1220" d="M1349.75 409.5326171454695C 1408.831557420767 414.75157716525723 1380.1498510467252 528.5142004870452 1440.0307017543853 528.5142004870452" stroke-dasharray="8,5" stroke="#003047" stroke-width="2" fill="none"></path></g><g id="SvgjsG1221"><path id="SvgjsPath1222" d="M1349.75 659.2085945297216C 1412.6043521940114 664.7576313219781 1376.3626448103623 528.5142004870452 1440.0307017543853 528.5142004870452" stroke-dasharray="8,5" stroke="#003047" stroke-width="2" fill="none"></path></g><g id="SvgjsG1223" transform="translate(1745.7449874686688,415.5670075896006)"><path id="SvgjsPath1224" d="M 0 113.5C 0 -37.833333333333336 232 -37.833333333333336 232 113.5C 232 264.8333333333333 0 264.8333333333333 0 113.5Z" stroke="rgba(0,48,71,1)" stroke-width="1" fill-opacity="1" fill="#ffffff"></path><g id="SvgjsG1225"><text id="SvgjsText1226" font-family="黑体" text-anchor="middle" font-size="14px" width="212px" fill="#003047" font-weight="400" align="middle" anchor="middle" family="黑体" size="14px" weight="400" font-style="" opacity="1" y="102.4" transform="rotate(0)"><tspan id="SvgjsTspan1227" dy="17" x="116"><tspan id="SvgjsTspan1228" style="text-decoration:;">Pod</tspan></tspan></text></g></g><g id="SvgjsG1229" transform="translate(1798.75,433.0625)"><path id="SvgjsPath1230" d="M 0 42C 0 -14 86 -14 86 42C 86 98 0 98 0 42Z" stroke="rgba(0,48,71,1)" stroke-width="1" fill-opacity="1" fill="#ffffff"></path><g id="SvgjsG1231"><text id="SvgjsText1232" font-family="黑体" text-anchor="middle" font-size="14px" width="66px" fill="#003047" font-weight="400" align="middle" anchor="middle" family="黑体" size="14px" weight="400" font-style="" opacity="1" y="21.9" transform="rotate(0)"><tspan id="SvgjsTspan1233" dy="17" x="43"><tspan id="SvgjsTspan1234" style="text-decoration:;">container</tspan></tspan><tspan id="SvgjsTspan1235" dy="17" x="43"><tspan id="SvgjsTspan1236" style="text-decoration:;">(Kibana)</tspan></tspan></text></g></g><g id="SvgjsG1237" transform="translate(1798.75,544.0625)"><path id="SvgjsPath1238" d="M 0 42C 0 -14 86 -14 86 42C 86 98 0 98 0 42Z" stroke="rgba(0,48,71,1)" stroke-width="1" fill-opacity="1" fill="#ffffff"></path><g id="SvgjsG1239"><text id="SvgjsText1240" font-family="黑体" text-anchor="middle" font-size="14px" width="66px" fill="#003047" font-weight="400" align="middle" anchor="middle" family="黑体" size="14px" weight="400" font-style="" opacity="1" y="12.9" transform="rotate(0)"><tspan id="SvgjsTspan1241" dy="17" x="43"><tspan id="SvgjsTspan1242" style="text-decoration:;">container</tspan></tspan><tspan id="SvgjsTspan1243" dy="17" x="43"><tspan id="SvgjsTspan1244" style="text-decoration:;">(istio-</tspan></tspan><tspan id="SvgjsTspan1245" dy="17" x="43"><tspan id="SvgjsTspan1246" style="text-decoration:;">proxy)</tspan></tspan></text></g></g><g id="SvgjsG1247" transform="translate(1881.9721342830758,483.556707805257)"><path id="SvgjsPath1248" d="M 0 42C 0 -14 86 -14 86 42C 86 98 0 98 0 42Z" stroke="rgba(0,48,71,1)" stroke-width="1" fill-opacity="1" fill="#ffffff"></path><g id="SvgjsG1249"><text id="SvgjsText1250" font-family="黑体" text-anchor="middle" font-size="14px" width="66px" fill="#003047" font-weight="400" align="middle" anchor="middle" family="黑体" size="14px" weight="400" font-style="" opacity="1" y="21.9" transform="rotate(0)"><tspan id="SvgjsTspan1251" dy="17" x="43"><tspan id="SvgjsTspan1252" style="text-decoration:;">container</tspan></tspan><tspan id="SvgjsTspan1253" dy="17" x="43"><tspan id="SvgjsTspan1254" style="text-decoration:;">(Filebeat</tspan><tspan id="SvgjsTspan1255" style="text-decoration:;font-size: inherit;">)</tspan></tspan></text></g></g><g id="SvgjsG1256"><path id="SvgjsPath1257" d="M1672.0307017543853 528.5142004870452C 1701.5172451640415 528.5142004870452 1716.2584440590126 529.0670075896006 1745.7449874686688 529.0670075896006" stroke-dasharray="8,5" stroke="#003047" stroke-width="2" fill="none"></path></g><g id="SvgjsG1258" transform="translate(1482.8928571428573,236.06249999999994)"><path id="SvgjsPath1259" d="M 0 0L 273.71428571428555 0L 273.71428571428555 75.71428571428572L 0 75.71428571428572Z" stroke="none" fill="none"></path><g id="SvgjsG1260"><text id="SvgjsText1261" font-family="黑体" text-anchor="middle" font-size="23px" width="274px" fill="#003047" font-weight="700" align="middle" anchor="middle" family="黑体" size="23px" weight="700" font-style="" opacity="1" y="17.907142857142862" transform="rotate(0)"><tspan id="SvgjsTspan1262" dy="28" x="137"><tspan id="SvgjsTspan1263" style="text-decoration:;">Kibana 文件收集模型</tspan></tspan></text></g></g></svg>